<svg width="448px" height="448px" viewBox="0 0 448 448" xmlns="http://www.w3.org/2000/svg"  xmlns:xlink="http://www.w3.org/1999/xlink" preserveAspectRatio="xMidYMid meet"><rect id="svgEditorBackground" x="0" y="0" width="1792" height="1792" style="fill: none; stroke: none;"/><path d="M896,672q119,0,203.5,84.5t84.5,203.5t-84.5,203.5t-203.5,84.5t-203.5,-84.5t-84.5,-203.5t84.5,-203.5t203.5,-84.5ZM1600,256q106,0,181,75t75,181v896q0,106,-75,181t-181,75h-1408q-106,0,-181,-75t-75,-181v-896q0,-106,75,-181t181,-75h224l51,-136q19,-49,69.5,-84.5t103.5,-35.5h512q53,0,103.5,35.5t69.5,84.5l51,136h224ZM896,1408q185,0,316.5,-131.5t131.5,-316.5t-131.5,-316.5t-316.5,-131.5t-316.5,131.5t-131.5,316.5t131.5,316.5t316.5,131.5Z" transform="matrix(0.217343, 0, 0, 0.217343, 28.4956, 26.7364)"/><text fill="black" style="font-family: Arial Black; font-size: 41.7716px;" x="57.958" y="431.292" id="e136_texte">camera offline</text></svg>